<svg width="44" height="43" viewBox="0 0 44 43" fill="none" xmlns="http://www.w3.org/2000/svg">
<g clip-path="url(#clip0_202_55)">
<path d="M23.0608 23.4762C21.1487 24.4929 18.7744 23.767 17.7578 21.8549L16.0533 18.6492C15.9263 18.4104 15.8628 18.291 15.8468 18.1769C15.8199 17.9856 15.879 17.7922 16.0083 17.6487C16.0854 17.563 16.2048 17.4995 16.4436 17.3726L21.7009 14.5772C21.9397 14.4502 22.0591 14.3867 22.1732 14.3707C22.3645 14.3438 22.5579 14.4029 22.7015 14.5322C22.7871 14.6093 22.8506 14.7287 22.9776 14.9675L24.6821 18.1732C25.6988 20.0853 24.9729 22.4595 23.0608 23.4762ZM23.0608 23.4762L23.9812 25.2073M23.148 15.2881L24.5906 14.521C24.8594 14.3781 24.9939 14.3066 25.1233 14.2941C25.2958 14.2775 25.4679 14.3301 25.6016 14.4404C25.7019 14.5231 25.7734 14.6575 25.9163 14.9264L26.0697 15.2149C26.3551 15.7515 26.4977 16.0198 26.5558 16.2713C26.7134 16.9538 26.4949 17.6685 25.9826 18.1462C25.7938 18.3222 25.5255 18.4649 24.9889 18.7502M16.2237 18.9698L14.7812 19.7368C14.5123 19.8798 14.3779 19.9512 14.2952 20.0515C14.1849 20.1853 14.1323 20.3573 14.1489 20.5299C14.1614 20.6593 14.2329 20.7937 14.3758 21.0626L14.5292 21.3511C14.8146 21.8877 14.9572 22.156 15.1333 22.3448C15.611 22.857 16.3257 23.0755 17.0082 22.918C17.2597 22.8599 17.528 22.7173 18.0646 22.4319M22.5798 28.9131L27.8371 26.1177C27.9788 26.0424 28.0325 25.8665 27.9572 25.7249C27.3547 24.5918 25.9478 24.1616 24.8147 24.7641L23.1477 25.6504C22.0146 26.2529 21.5845 27.6599 22.187 28.793C22.2623 28.9346 22.4381 28.9884 22.5798 28.9131Z" stroke="#FF5555" stroke-width="1.30704" stroke-linecap="round" stroke-linejoin="round"/>
</g>
<circle cx="22.1407" cy="21.7454" r="15.3578" transform="rotate(-28 22.1407 21.7454)" stroke="#FF5555" stroke-width="0.653521"/>
<defs>
<clipPath id="clip0_202_55">
<rect width="15.6845" height="15.6845" fill="white" transform="translate(11.5344 18.5026) rotate(-28)"/>
</clipPath>
</defs>
</svg>
