<svg width="720" height="720" viewBox="0 0 720 720" fill="none" xmlns="http://www.w3.org/2000/svg">
<path d="M461.741 257.747C515.082 311.088 548.337 374.385 559.002 433.583C569.667 492.783 557.736 547.833 520.784 584.784C483.833 621.736 428.783 633.667 369.583 623.002C310.385 612.337 247.088 579.082 193.747 525.741C140.406 472.4 107.151 409.103 96.4861 349.905C85.8211 290.705 97.7523 235.655 134.704 198.704C171.655 161.752 226.705 149.821 285.905 160.486C345.103 171.151 408.4 204.406 461.741 257.747Z" stroke="black"/>
<path d="M493.741 225.747C547.082 279.088 580.337 342.385 591.002 401.583C601.667 460.783 589.736 515.833 552.784 552.784C515.833 589.736 460.783 601.667 401.583 591.002C342.385 580.337 279.088 547.082 225.747 493.741C172.406 440.4 139.151 377.103 128.486 317.905C117.821 258.705 129.752 203.655 166.704 166.704C203.655 129.752 258.705 117.821 317.905 128.486C377.103 139.151 440.4 172.406 493.741 225.747Z" stroke="black"/>
<path d="M525.741 193.747C579.082 247.088 612.337 310.385 623.002 369.583C633.667 428.783 621.736 483.833 584.784 520.784C547.833 557.736 492.783 569.667 433.583 559.002C374.385 548.337 311.088 515.082 257.747 461.741C204.406 408.4 171.151 345.103 160.486 285.905C149.821 226.705 161.752 171.655 198.704 134.704C235.655 97.7523 290.705 85.8211 349.905 96.486C409.103 107.151 472.4 140.406 525.741 193.747Z" stroke="black"/>
</svg>
