<svg width="43" height="43" viewBox="0 0 43 43" fill="none" xmlns="http://www.w3.org/2000/svg">
<g clip-path="url(#clip0_202_48)">
<path d="M21.8002 19.2222L20.3577 19.9892C19.8796 20.2434 19.6982 20.837 19.9523 21.315C20.2065 21.793 20.8001 21.9745 21.2781 21.7203L21.8551 21.4135C22.3331 21.1593 22.9267 21.3408 23.1809 21.8188C23.435 22.2968 23.2536 22.8904 22.7755 23.1446L21.333 23.9116M20.3394 19.2588L20.6462 19.8358M22.487 23.298L22.7938 23.875M25.0288 19.726L25.0345 19.723M18.1045 23.4078L18.1102 23.4047M14.6305 22.4423L16.9622 26.8277C17.3059 27.474 17.4777 27.7972 17.7348 27.9772C17.9609 28.1355 18.2313 28.2182 18.5073 28.2134C18.821 28.2079 19.1442 28.036 19.7905 27.6924L27.638 23.5198C28.2844 23.1761 28.6075 23.0043 28.7875 22.7472C28.9458 22.5211 29.0285 22.2507 29.0237 21.9747C29.0182 21.661 28.8464 21.3378 28.5027 20.6915L26.171 16.3061C25.8273 15.6598 25.6555 15.3366 25.3984 15.1566C25.1723 14.9983 24.9019 14.9156 24.6259 14.9205C24.3122 14.9259 23.989 15.0978 23.3427 15.4414L15.4952 19.614C14.8488 19.9577 14.5257 20.1295 14.3457 20.3866C14.1874 20.6127 14.1047 20.8831 14.1095 21.1591C14.115 21.4728 14.2868 21.796 14.6305 22.4423ZM25.3173 19.5726C25.402 19.732 25.3415 19.9298 25.1822 20.0146C25.0228 20.0993 24.825 20.0388 24.7402 19.8795C24.6555 19.7201 24.716 19.5223 24.8753 19.4375C25.0347 19.3528 25.2325 19.4133 25.3173 19.5726ZM18.393 23.2544C18.4777 23.4137 18.4172 23.6116 18.2579 23.6963C18.0985 23.781 17.9007 23.7205 17.8159 23.5612C17.7312 23.4018 17.7917 23.204 17.951 23.1192C18.1104 23.0345 18.3082 23.095 18.393 23.2544Z" stroke="#FF5555" stroke-width="1.30704" stroke-linecap="round" stroke-linejoin="round"/>
</g>
<circle cx="21.5665" cy="21.567" r="15.3578" transform="rotate(-28 21.5665 21.567)" stroke="#FF5555" stroke-width="0.653521"/>
<defs>
<clipPath id="clip0_202_48">
<rect width="15.6845" height="15.6845" fill="white" transform="translate(10.9604 18.3243) rotate(-28)"/>
</clipPath>
</defs>
</svg>
