<svg width="262" height="161" viewBox="0 0 262 161" fill="none" xmlns="http://www.w3.org/2000/svg">
<g filter="url(#filter0_b_227_319)">
<rect width="260.07" height="159.279" rx="16" transform="matrix(1 0 0.00488691 0.999988 0 0.70874)" fill="black"/>
</g>
<path d="M22.3603 115.93C21.5529 115.93 20.8551 115.739 20.2668 115.356C19.687 114.965 19.2382 114.426 18.9204 113.737C18.6111 113.04 18.4541 112.233 18.4497 111.315C18.4452 110.397 18.5942 109.594 18.8968 108.906C19.2078 108.209 19.6514 107.669 20.2274 107.287C20.8119 106.896 21.5078 106.701 22.3152 106.701C23.1225 106.701 23.8161 106.896 24.3959 107.287C24.9757 107.669 25.4203 108.209 25.7296 108.906C26.0474 109.594 26.2086 110.397 26.213 111.315C26.2175 112.233 26.0643 113.04 25.7532 113.737C25.4506 114.426 25.0113 114.965 24.4354 115.356C23.8593 115.739 23.1676 115.93 22.3603 115.93ZM22.3544 114.719C22.8388 114.719 23.2673 114.583 23.6399 114.311C24.021 114.039 24.3165 113.648 24.5265 113.138C24.7365 112.628 24.8397 112.021 24.8363 111.315C24.8328 110.61 24.7236 110.002 24.5087 109.492C24.2937 108.982 23.9944 108.591 23.6106 108.319C23.2353 108.048 22.8055 107.912 22.3211 107.912C21.8282 107.912 21.3954 108.048 21.0228 108.319C20.6502 108.591 20.3589 108.982 20.1489 109.492C19.939 110.002 19.8357 110.61 19.8392 111.315C19.8426 112.021 19.9518 112.628 20.1668 113.138C20.3817 113.648 20.6768 114.039 21.0521 114.311C21.4274 114.583 21.8614 114.719 22.3544 114.719ZM32.3309 115.93C31.5236 115.93 30.8258 115.739 30.2375 115.356C29.6577 114.965 29.2089 114.426 28.8911 113.737C28.5817 113.04 28.4248 112.233 28.4203 111.315C28.4158 110.397 28.5649 109.594 28.8674 108.906C29.1785 108.209 29.622 107.669 30.1981 107.287C30.7825 106.896 31.4785 106.701 32.2858 106.701C33.0932 106.701 33.7868 106.896 34.3666 107.287C34.9463 107.669 35.3909 108.209 35.7002 108.906C36.0181 109.594 36.1792 110.397 36.1837 111.315C36.1882 112.233 36.0349 113.04 35.7239 113.737C35.4213 114.426 34.982 114.965 34.406 115.356C33.83 115.739 33.1383 115.93 32.3309 115.93ZM32.325 114.719C32.8094 114.719 33.2379 114.583 33.6105 114.311C33.9916 114.039 34.2872 113.648 34.4971 113.138C34.7071 112.628 34.8104 112.021 34.8069 111.315C34.8035 110.61 34.6943 110.002 34.4793 109.492C34.2644 108.982 33.965 108.591 33.5813 108.319C33.206 108.048 32.7762 107.912 32.2917 107.912C31.7988 107.912 31.3661 108.048 30.9935 108.319C30.6209 108.591 30.3296 108.982 30.1196 109.492C29.9096 110.002 29.8064 110.61 29.8098 111.315C29.8133 112.021 29.9225 112.628 30.1374 113.138C30.3524 113.648 30.6475 114.039 31.0227 114.311C31.398 114.583 31.8321 114.719 32.325 114.719ZM42.3016 115.93C41.4942 115.93 40.7964 115.739 40.2081 115.356C39.6283 114.965 39.1795 114.426 38.8617 113.737C38.5524 113.04 38.3954 112.233 38.3909 111.315C38.3865 110.397 38.5355 109.594 38.8381 108.906C39.1491 108.209 39.5927 107.669 40.1687 107.287C40.7532 106.896 41.4491 106.701 42.2565 106.701C43.0638 106.701 43.7574 106.896 44.3372 107.287C44.917 107.669 45.3615 108.209 45.6709 108.906C45.9887 109.594 46.1499 110.397 46.1543 111.315C46.1588 112.233 46.0055 113.04 45.6945 113.737C45.3919 114.426 44.9526 114.965 44.3766 115.356C43.8006 115.739 43.1089 115.93 42.3016 115.93ZM42.2956 114.719C42.7801 114.719 43.2086 114.583 43.5812 114.311C43.9623 114.039 44.2578 113.648 44.4678 113.138C44.6778 112.628 44.781 112.021 44.7776 111.315C44.7741 110.61 44.6649 110.002 44.45 109.492C44.235 108.982 43.9357 108.591 43.5519 108.319C43.1766 108.048 42.7468 107.912 42.2624 107.912C41.7695 107.912 41.3367 108.048 40.9641 108.319C40.5915 108.591 40.3002 108.982 40.0902 109.492C39.8803 110.002 39.777 110.61 39.7805 111.315C39.7839 112.021 39.8931 112.628 40.1081 113.138C40.323 113.648 40.6181 114.039 40.9934 114.311C41.3686 114.583 41.8027 114.719 42.2956 114.719ZM52.2722 115.93C51.4649 115.93 50.767 115.739 50.1788 115.356C49.599 114.965 49.1502 114.426 48.8323 113.737C48.523 113.04 48.3661 112.233 48.3616 111.315C48.3571 110.397 48.5062 109.594 48.8087 108.906C49.1198 108.209 49.5633 107.669 50.1393 107.287C50.7238 106.896 51.4198 106.701 52.2271 106.701C53.0345 106.701 53.7281 106.896 54.3079 107.287C54.8876 107.669 55.3322 108.209 55.6415 108.906C55.9593 109.594 56.1205 110.397 56.125 111.315C56.1295 112.233 55.9762 113.04 55.6652 113.737C55.3626 114.426 54.9233 114.965 54.3473 115.356C53.7713 115.739 53.0796 115.93 52.2722 115.93ZM52.2663 114.719C52.7507 114.719 53.1792 114.583 53.5518 114.311C53.9329 114.039 54.2285 113.648 54.4384 113.138C54.6484 112.628 54.7517 112.021 54.7482 111.315C54.7448 110.61 54.6356 110.002 54.4206 109.492C54.2057 108.982 53.9063 108.591 53.5225 108.319C53.1473 108.048 52.7174 107.912 52.233 107.912C51.7401 107.912 51.3074 108.048 50.9347 108.319C50.5621 108.591 50.2709 108.982 50.0609 109.492C49.8509 110.002 49.7477 110.61 49.7511 111.315C49.7545 112.021 49.8637 112.628 50.0787 113.138C50.2937 113.648 50.5888 114.039 50.964 114.311C51.3393 114.583 51.7734 114.719 52.2663 114.719ZM65.9519 115.93C65.357 115.93 64.8168 115.824 64.3313 115.611C63.8543 115.39 63.4704 115.084 63.1796 114.693C62.8972 114.302 62.7547 113.843 62.7521 113.317C62.7495 112.781 62.8959 112.301 63.1913 111.876C63.4952 111.451 63.8974 111.162 64.3981 111.009C63.9468 110.831 63.5971 110.572 63.349 110.232C63.1008 109.883 62.9757 109.501 62.9737 109.084C62.9716 108.651 63.0844 108.256 63.3121 107.899C63.5397 107.533 63.8698 107.244 64.3022 107.032C64.743 106.811 65.2779 106.701 65.9068 106.701C66.5356 106.701 67.0673 106.811 67.5018 107.032C67.9448 107.244 68.2819 107.533 68.5132 107.899C68.7444 108.256 68.861 108.651 68.8631 109.084C68.8651 109.492 68.7395 109.875 68.4863 110.232C68.2416 110.58 67.8944 110.839 67.4448 111.009C67.947 111.171 68.3479 111.464 68.6474 111.889C68.9554 112.305 69.1107 112.781 69.1133 113.317C69.1159 113.843 68.9779 114.302 68.6993 114.693C68.4208 115.084 68.0399 115.39 67.5565 115.611C67.0816 115.824 66.5468 115.93 65.9519 115.93ZM65.9257 110.576C66.4186 110.576 66.8047 110.448 67.0839 110.193C67.3716 109.938 67.5145 109.611 67.5125 109.212C67.5103 108.761 67.3684 108.417 67.0868 108.179C66.8052 107.941 66.4137 107.822 65.9122 107.822C65.4108 107.822 65.0205 107.941 64.7412 108.179C64.4619 108.417 64.3234 108.761 64.3256 109.212C64.3275 109.611 64.4693 109.938 64.751 110.193C65.0327 110.448 65.4243 110.576 65.9257 110.576ZM65.9463 114.783C66.5581 114.783 67.0164 114.638 67.3209 114.349C67.6254 114.052 67.7765 113.673 67.7743 113.215C67.7718 112.705 67.6041 112.314 67.2714 112.042C66.9471 111.761 66.5002 111.621 65.9308 111.621C65.3614 111.621 64.9117 111.761 64.5816 112.042C64.2515 112.314 64.0877 112.705 64.0902 113.215C64.0924 113.673 64.2472 114.052 64.5546 114.349C64.8705 114.638 65.3344 114.783 65.9463 114.783ZM74.8768 115.93C74.2819 115.93 73.7417 115.824 73.2563 115.611C72.7793 115.39 72.3953 115.084 72.1045 114.693C71.8221 114.302 71.6796 113.843 71.6771 113.317C71.6745 112.781 71.8208 112.301 72.1162 111.876C72.4201 111.451 72.8223 111.162 73.323 111.009C72.8717 110.831 72.522 110.572 72.2739 110.232C72.0257 109.883 71.9006 109.501 71.8986 109.084C71.8965 108.651 72.0093 108.256 72.237 107.899C72.4647 107.533 72.7947 107.244 73.2271 107.032C73.6679 106.811 74.2028 106.701 74.8317 106.701C75.4606 106.701 75.9923 106.811 76.4268 107.032C76.8697 107.244 77.2068 107.533 77.4381 107.899C77.6693 108.256 77.7859 108.651 77.7881 109.084C77.7901 109.492 77.6645 109.875 77.4112 110.232C77.1665 110.58 76.8193 110.839 76.3697 111.009C76.8719 111.171 77.2728 111.464 77.5723 111.889C77.8803 112.305 78.0356 112.781 78.0382 113.317C78.0408 113.843 77.9028 114.302 77.6243 114.693C77.3457 115.084 76.9648 115.39 76.4814 115.611C76.0066 115.824 75.4717 115.93 74.8768 115.93ZM74.8506 110.576C75.3435 110.576 75.7296 110.448 76.0088 110.193C76.2965 109.938 76.4394 109.611 76.4374 109.212C76.4352 108.761 76.2933 108.417 76.0117 108.179C75.7301 107.941 75.3386 107.822 74.8372 107.822C74.3358 107.822 73.9454 107.941 73.6661 108.179C73.3868 108.417 73.2483 108.761 73.2505 109.212C73.2524 109.611 73.3943 109.938 73.676 110.193C73.9577 110.448 74.3492 110.576 74.8506 110.576ZM74.8712 114.783C75.4831 114.783 75.9413 114.638 76.2458 114.349C76.5503 114.052 76.7014 113.673 76.6992 113.215C76.6967 112.705 76.5291 112.314 76.1963 112.042C75.872 111.761 75.4251 111.621 74.8557 111.621C74.2863 111.621 73.8366 111.761 73.5065 112.042C73.1764 112.314 73.0126 112.705 73.0151 113.215C73.0173 113.673 73.1722 114.052 73.4796 114.349C73.7954 114.638 74.2593 114.783 74.8712 114.783ZM83.8017 115.93C83.2068 115.93 82.6666 115.824 82.1812 115.611C81.7042 115.39 81.3203 115.084 81.0294 114.693C80.747 114.302 80.6046 113.843 80.602 113.317C80.5994 112.781 80.7458 112.301 81.0411 111.876C81.345 111.451 81.7473 111.162 82.2479 111.009C81.7966 110.831 81.4469 110.572 81.1988 110.232C80.9507 109.883 80.8256 109.501 80.8235 109.084C80.8214 108.651 80.9342 108.256 81.1619 107.899C81.3896 107.533 81.7196 107.244 82.152 107.032C82.5929 106.811 83.1277 106.701 83.7566 106.701C84.3855 106.701 84.9172 106.811 85.3517 107.032C85.7947 107.244 86.1318 107.533 86.363 107.899C86.5942 108.256 86.7109 108.651 86.713 109.084C86.715 109.492 86.5894 109.875 86.3362 110.232C86.0914 110.58 85.7442 110.839 85.2947 111.009C85.7969 111.171 86.1977 111.464 86.4972 111.889C86.8052 112.305 86.9605 112.781 86.9631 113.317C86.9657 113.843 86.8277 114.302 86.5492 114.693C86.2707 115.084 85.8897 115.39 85.4064 115.611C84.9315 115.824 84.3966 115.93 83.8017 115.93ZM83.7756 110.576C84.2685 110.576 84.6545 110.448 84.9337 110.193C85.2214 109.938 85.3643 109.611 85.3624 109.212C85.3602 108.761 85.2182 108.417 84.9366 108.179C84.655 107.941 84.2635 107.822 83.7621 107.822C83.2607 107.822 82.8703 107.941 82.591 108.179C82.3118 108.417 82.1732 108.761 82.1754 109.212C82.1774 109.611 82.3192 109.938 82.6009 110.193C82.8826 110.448 83.2741 110.576 83.7756 110.576ZM83.7961 114.783C84.408 114.783 84.8662 114.638 85.1708 114.349C85.4752 114.052 85.6264 113.673 85.6241 113.215C85.6216 112.705 85.454 112.314 85.1212 112.042C84.7969 111.761 84.3501 111.621 83.7807 111.621C83.2113 111.621 82.7615 111.761 82.4315 112.042C82.1013 112.314 81.9375 112.705 81.94 113.215C81.9423 113.673 82.0971 114.052 82.4045 114.349C82.7203 114.638 83.1842 114.783 83.7961 114.783ZM92.7266 115.93C92.1318 115.93 91.5916 115.824 91.1061 115.611C90.6291 115.39 90.2452 115.084 89.9543 114.693C89.672 114.302 89.5295 113.843 89.5269 113.317C89.5243 112.781 89.6707 112.301 89.9661 111.876C90.2699 111.451 90.6722 111.162 91.1729 111.009C90.7216 110.831 90.3719 110.572 90.1238 110.232C89.8756 109.883 89.7505 109.501 89.7485 109.084C89.7463 108.651 89.8591 108.256 90.0869 107.899C90.3145 107.533 90.6446 107.244 91.0769 107.032C91.5178 106.811 92.0527 106.701 92.6815 106.701C93.3104 106.701 93.8421 106.811 94.2766 107.032C94.7196 107.244 95.0567 107.533 95.2879 107.899C95.5191 108.256 95.6358 108.651 95.6379 109.084C95.6399 109.492 95.5143 109.875 95.2611 110.232C95.0163 110.58 94.6692 110.839 94.2196 111.009C94.7218 111.171 95.1227 111.464 95.4222 111.889C95.7302 112.305 95.8855 112.781 95.8881 113.317C95.8906 113.843 95.7527 114.302 95.4741 114.693C95.1956 115.084 94.8146 115.39 94.3313 115.611C93.8564 115.824 93.3215 115.93 92.7266 115.93ZM92.7005 110.576C93.1934 110.576 93.5795 110.448 93.8587 110.193C94.1464 109.938 94.2892 109.611 94.2873 109.212C94.2851 108.761 94.1432 108.417 93.8616 108.179C93.58 107.941 93.1884 107.822 92.687 107.822C92.1856 107.822 91.7953 107.941 91.516 108.179C91.2367 108.417 91.0981 108.761 91.1003 109.212C91.1023 109.611 91.2441 109.938 91.5258 110.193C91.8075 110.448 92.1991 110.576 92.7005 110.576ZM92.721 114.783C93.3329 114.783 93.7911 114.638 94.0957 114.349C94.4002 114.052 94.5513 113.673 94.5491 113.215C94.5466 112.705 94.3789 112.314 94.0462 112.042C93.7218 111.761 93.275 111.621 92.7056 111.621C92.1362 111.621 91.6865 111.761 91.3564 112.042C91.0263 112.314 90.8625 112.705 90.865 113.215C90.8672 113.673 91.022 114.052 91.3294 114.349C91.6453 114.638 92.1091 114.783 92.721 114.783ZM102.657 115.777L102.653 114.808C103.228 114.349 103.778 113.886 104.303 113.419C104.828 112.951 105.293 112.492 105.699 112.042C106.113 111.583 106.438 111.137 106.674 110.703C106.909 110.261 107.026 109.836 107.024 109.429C107.023 109.157 106.975 108.902 106.88 108.664C106.786 108.417 106.632 108.222 106.419 108.077C106.205 107.924 105.92 107.848 105.563 107.848C105.028 107.848 104.625 108.018 104.355 108.358C104.093 108.698 103.967 109.106 103.978 109.582H102.665C102.671 108.953 102.8 108.426 103.053 108.001C103.314 107.576 103.661 107.253 104.093 107.032C104.534 106.811 105.031 106.701 105.583 106.701C106.425 106.701 107.097 106.939 107.601 107.414C108.113 107.882 108.371 108.536 108.375 109.378C108.378 109.879 108.257 110.376 108.013 110.869C107.777 111.362 107.465 111.838 107.077 112.297C106.696 112.747 106.286 113.172 105.846 113.572C105.406 113.971 104.987 114.332 104.589 114.655H108.669L108.674 115.777H102.657ZM110.972 115.777L110.968 114.808C111.543 114.349 112.093 113.886 112.618 113.419C113.143 112.951 113.608 112.492 114.013 112.042C114.428 111.583 114.753 111.137 114.988 110.703C115.224 110.261 115.341 109.836 115.339 109.429C115.338 109.157 115.29 108.902 115.195 108.664C115.101 108.417 114.947 108.222 114.733 108.077C114.52 107.924 114.235 107.848 113.878 107.848C113.343 107.848 112.94 108.018 112.67 108.358C112.408 108.698 112.282 109.106 112.293 109.582H110.98C110.986 108.953 111.115 108.426 111.368 108.001C111.629 107.576 111.976 107.253 112.408 107.032C112.849 106.811 113.346 106.701 113.898 106.701C114.739 106.701 115.412 106.939 115.916 107.414C116.428 107.882 116.686 108.536 116.69 109.378C116.693 109.879 116.572 110.376 116.328 110.869C116.092 111.362 115.78 111.838 115.391 112.297C115.011 112.747 114.601 113.172 114.161 113.572C113.721 113.971 113.302 114.332 112.904 114.655H116.984L116.989 115.777H110.972ZM119.287 115.777L119.282 114.808C119.858 114.349 120.408 113.886 120.933 113.419C121.457 112.951 121.923 112.492 122.328 112.042C122.743 111.583 123.068 111.137 123.303 110.703C123.539 110.261 123.656 109.836 123.654 109.429C123.653 109.157 123.605 108.902 123.51 108.664C123.415 108.417 123.262 108.222 123.048 108.077C122.835 107.924 122.55 107.848 122.193 107.848C121.658 107.848 121.255 108.018 120.985 108.358C120.723 108.698 120.597 109.106 120.608 109.582H119.295C119.301 108.953 119.43 108.426 119.683 108.001C119.944 107.576 120.291 107.253 120.723 107.032C121.164 106.811 121.661 106.701 122.213 106.701C123.054 106.701 123.727 106.939 124.231 107.414C124.743 107.882 125.001 108.536 125.005 109.378C125.008 109.879 124.887 110.376 124.643 110.869C124.407 111.362 124.095 111.838 123.706 112.297C123.326 112.747 122.916 113.172 122.476 113.572C122.036 113.971 121.617 114.332 121.219 114.655H125.299L125.304 115.777H119.287ZM127.602 115.777L127.597 114.808C128.173 114.349 128.723 113.886 129.248 113.419C129.772 112.951 130.238 112.492 130.643 112.042C131.057 111.583 131.383 111.137 131.618 110.703C131.854 110.261 131.971 109.836 131.969 109.429C131.968 109.157 131.92 108.902 131.825 108.664C131.73 108.417 131.576 108.222 131.363 108.077C131.15 107.924 130.865 107.848 130.508 107.848C129.973 107.848 129.57 108.018 129.3 108.358C129.038 108.698 128.912 109.106 128.923 109.582H127.61C127.615 108.953 127.745 108.426 127.998 108.001C128.259 107.576 128.606 107.253 129.038 107.032C129.479 106.811 129.976 106.701 130.528 106.701C131.369 106.701 132.042 106.939 132.546 107.414C133.058 107.882 133.316 108.536 133.32 109.378C133.323 109.879 133.202 110.376 132.958 110.869C132.722 111.362 132.41 111.838 132.021 112.297C131.641 112.747 131.231 113.172 130.791 113.572C130.351 113.971 129.932 114.332 129.534 114.655H133.614L133.619 115.777H127.602ZM143.183 115.93C142.605 115.93 142.078 115.828 141.601 115.624C141.133 115.411 140.757 115.093 140.475 114.668C140.192 114.243 140.041 113.712 140.021 113.074H141.359C141.379 113.55 141.542 113.954 141.85 114.285C142.166 114.608 142.608 114.77 143.178 114.77C143.722 114.77 144.137 114.621 144.425 114.324C144.712 114.018 144.855 113.64 144.853 113.189C144.85 112.645 144.653 112.242 144.26 111.978C143.877 111.715 143.404 111.583 142.843 111.583H142.181L142.175 110.461H142.851C143.352 110.461 143.755 110.342 144.06 110.104C144.373 109.866 144.529 109.531 144.527 109.097C144.525 108.732 144.4 108.434 144.153 108.205C143.914 107.975 143.573 107.861 143.131 107.861C142.672 107.861 142.312 107.997 142.05 108.269C141.787 108.532 141.645 108.863 141.621 109.263H140.283C140.297 108.744 140.422 108.294 140.658 107.912C140.903 107.529 141.237 107.232 141.661 107.019C142.085 106.807 142.573 106.701 143.126 106.701C143.72 106.701 144.218 106.807 144.619 107.019C145.028 107.223 145.335 107.504 145.541 107.861C145.755 108.209 145.863 108.591 145.865 109.008C145.867 109.484 145.737 109.9 145.476 110.257C145.214 110.614 144.863 110.852 144.421 110.971C144.932 111.081 145.354 111.332 145.687 111.723C146.02 112.106 146.188 112.603 146.191 113.215C146.194 113.707 146.081 114.162 145.854 114.579C145.626 114.987 145.288 115.314 144.839 115.56C144.39 115.807 143.838 115.93 143.183 115.93ZM151.747 115.93C151.169 115.93 150.642 115.828 150.165 115.624C149.697 115.411 149.321 115.093 149.039 114.668C148.756 114.243 148.605 113.712 148.585 113.074H149.923C149.942 113.55 150.106 113.954 150.414 114.285C150.73 114.608 151.172 114.77 151.742 114.77C152.286 114.77 152.701 114.621 152.989 114.324C153.276 114.018 153.419 113.64 153.417 113.189C153.414 112.645 153.217 112.242 152.824 111.978C152.441 111.715 151.968 111.583 151.407 111.583H150.744L150.739 110.461H151.415C151.916 110.461 152.319 110.342 152.624 110.104C152.937 109.866 153.093 109.531 153.091 109.097C153.089 108.732 152.964 108.434 152.717 108.205C152.478 107.975 152.137 107.861 151.695 107.861C151.236 107.861 150.876 107.997 150.614 108.269C150.351 108.532 150.209 108.863 150.185 109.263H148.846C148.861 108.744 148.986 108.294 149.222 107.912C149.467 107.529 149.801 107.232 150.225 107.019C150.649 106.807 151.137 106.701 151.689 106.701C152.284 106.701 152.782 106.807 153.183 107.019C153.591 107.223 153.899 107.504 154.104 107.861C154.319 108.209 154.427 108.591 154.429 109.008C154.431 109.484 154.301 109.9 154.04 110.257C153.778 110.614 153.426 110.852 152.985 110.971C153.496 111.081 153.917 111.332 154.251 111.723C154.584 112.106 154.752 112.603 154.755 113.215C154.758 113.707 154.645 114.162 154.418 114.579C154.19 114.987 153.852 115.314 153.403 115.56C152.953 115.807 152.402 115.93 151.747 115.93ZM160.311 115.93C159.733 115.93 159.206 115.828 158.729 115.624C158.261 115.411 157.885 115.093 157.603 114.668C157.32 114.243 157.169 113.712 157.149 113.074H158.487C158.506 113.55 158.67 113.954 158.977 114.285C159.293 114.608 159.736 114.77 160.306 114.77C160.849 114.77 161.265 114.621 161.553 114.324C161.84 114.018 161.983 113.64 161.981 113.189C161.978 112.645 161.78 112.242 161.388 111.978C161.004 111.715 160.532 111.583 159.971 111.583H159.308L159.303 110.461H159.979C160.48 110.461 160.883 110.342 161.188 110.104C161.501 109.866 161.657 109.531 161.655 109.097C161.653 108.732 161.528 108.434 161.281 108.205C161.041 107.975 160.701 107.861 160.259 107.861C159.8 107.861 159.44 107.997 159.177 108.269C158.915 108.532 158.772 108.863 158.749 109.263H157.41C157.425 108.744 157.55 108.294 157.786 107.912C158.031 107.529 158.365 107.232 158.789 107.019C159.213 106.807 159.701 106.701 160.253 106.701C160.848 106.701 161.346 106.807 161.746 107.019C162.155 107.223 162.463 107.504 162.668 107.861C162.883 108.209 162.991 108.591 162.993 109.008C162.995 109.484 162.865 109.9 162.604 110.257C162.342 110.614 161.99 110.852 161.549 110.971C162.059 111.081 162.481 111.332 162.815 111.723C163.148 112.106 163.316 112.603 163.319 113.215C163.322 113.707 163.209 114.162 162.982 114.579C162.754 114.987 162.416 115.314 161.967 115.56C161.517 115.807 160.966 115.93 160.311 115.93ZM168.875 115.93C168.297 115.93 167.77 115.828 167.293 115.624C166.824 115.411 166.449 115.093 166.166 114.668C165.884 114.243 165.733 113.712 165.712 113.074H167.051C167.07 113.55 167.234 113.954 167.541 114.285C167.857 114.608 168.3 114.77 168.869 114.77C169.413 114.77 169.829 114.621 170.117 114.324C170.404 114.018 170.547 113.64 170.544 113.189C170.542 112.645 170.344 112.242 169.952 111.978C169.568 111.715 169.096 111.583 168.535 111.583H167.872L167.867 110.461H168.542C169.044 110.461 169.447 110.342 169.752 110.104C170.065 109.866 170.221 109.531 170.218 109.097C170.217 108.732 170.092 108.434 169.844 108.205C169.605 107.975 169.265 107.861 168.823 107.861C168.364 107.861 168.004 107.997 167.741 108.269C167.479 108.532 167.336 108.863 167.313 109.263H165.974C165.989 108.744 166.114 108.294 166.35 107.912C166.595 107.529 166.929 107.232 167.353 107.019C167.777 106.807 168.265 106.701 168.817 106.701C169.412 106.701 169.91 106.807 170.31 107.019C170.719 107.223 171.027 107.504 171.232 107.861C171.446 108.209 171.555 108.591 171.557 109.008C171.559 109.484 171.429 109.9 171.168 110.257C170.906 110.614 170.554 110.852 170.113 110.971C170.623 111.081 171.045 111.332 171.379 111.723C171.712 112.106 171.88 112.603 171.883 113.215C171.885 113.707 171.773 114.162 171.546 114.579C171.318 114.987 170.98 115.314 170.531 115.56C170.081 115.807 169.53 115.93 168.875 115.93Z" fill="white"/>
<path d="M57.1079 142.604C56.4657 142.604 55.9091 142.448 55.4381 142.138C54.9739 141.82 54.6161 141.381 54.3648 140.822C54.1135 140.256 53.986 139.6 53.9823 138.854C53.9787 138.109 54.0998 137.456 54.3456 136.897C54.5914 136.331 54.9449 135.892 55.406 135.581C55.874 135.264 56.4291 135.105 57.0713 135.105C57.7134 135.105 58.2666 135.264 58.7308 135.581C59.195 135.892 59.5527 136.331 59.8041 136.897C60.0554 137.456 60.1828 138.109 60.1865 138.854C60.1901 139.6 60.0691 140.256 59.8232 140.822C59.5774 141.381 59.2239 141.82 58.7628 142.138C58.3017 142.448 57.7501 142.604 57.1079 142.604ZM57.1042 141.837C57.5254 141.837 57.9011 141.72 58.2314 141.485C58.5686 141.243 58.8293 140.902 59.0136 140.46C59.2047 140.011 59.2988 139.476 59.2957 138.854C59.2927 138.233 59.1934 137.701 58.9979 137.259C58.8093 136.817 58.5453 136.479 58.2058 136.244C57.8732 136.003 57.4963 135.882 57.0751 135.882C56.6469 135.882 56.2678 136.003 55.9375 136.244C55.6072 136.479 55.3465 136.817 55.1553 137.259C54.9641 137.701 54.87 138.233 54.8731 138.854C54.8761 139.476 54.9754 140.011 55.1709 140.46C55.3664 140.902 55.6305 141.243 55.9631 141.485C56.2957 141.72 56.676 141.837 57.1042 141.837ZM62.7489 142.479L65.5965 135.975H61.6192L61.6156 135.229H66.4837L66.4868 135.882L63.6708 142.479H62.7489ZM67.1276 143.463L69.6839 134.566H70.5436L67.9873 143.463H67.1276ZM72.3599 142.479L72.3569 141.868C72.8452 141.482 73.306 141.091 73.7391 140.698C74.179 140.297 74.5672 139.904 74.9037 139.517C75.2471 139.13 75.5145 138.751 75.706 138.378C75.9044 138.005 76.0028 137.646 76.0011 137.301C75.9999 137.045 75.9538 136.807 75.863 136.586C75.779 136.365 75.6401 136.189 75.4461 136.058C75.2521 135.92 74.9894 135.851 74.6579 135.851C74.3403 135.851 74.0748 135.923 73.8614 136.068C73.6481 136.206 73.4867 136.393 73.3774 136.627C73.2749 136.862 73.2244 137.114 73.2257 137.384H72.3867C72.3844 136.907 72.4825 136.5 72.6811 136.161C72.8797 135.816 73.1512 135.554 73.4955 135.374C73.8399 135.195 74.2296 135.105 74.6646 135.105C75.3068 135.105 75.8325 135.288 76.2417 135.654C76.6577 136.013 76.8675 136.551 76.871 137.27C76.8731 137.698 76.7681 138.122 76.5561 138.544C76.3441 138.958 76.0733 139.362 75.7438 139.755C75.4143 140.142 75.0604 140.505 74.6823 140.843C74.3111 141.181 73.9639 141.485 73.6407 141.754H77.1415L77.145 142.479H72.3599ZM82.3411 142.479L82.3335 140.926H78.6565L78.6532 140.253L82.1503 135.229H83.1653L83.1894 140.159H84.2666L84.2703 140.926H83.1931L83.2007 142.479H82.3411ZM79.616 140.159H82.3712L82.3518 136.192L79.616 140.159Z" fill="white"/>
<path d="M19.7435 140.8L18.4699 137.453H18.905L19.9757 140.374L21.0275 137.453H21.4529L20.212 140.8H19.7435ZM21.638 140.8L22.855 137.453H23.2804L24.5253 140.8H24.0999L23.7897 139.939H22.3652L22.0586 140.8H21.638ZM22.4831 139.614H23.6686L23.0678 137.96L22.4831 139.614ZM25.4052 140.8L25.3889 137.453H25.7904L25.8052 140.479H27.3636L27.3652 140.8H25.4052ZM28.2992 140.8L28.2829 137.453H28.6844L28.7008 140.8H28.2992ZM29.7927 140.8L29.7764 137.453H30.8042C31.3938 137.453 31.8279 137.603 32.1067 137.903C32.3886 138.202 32.5308 138.613 32.5334 139.136C32.5359 139.649 32.3976 140.056 32.1186 140.355C31.8428 140.652 31.4101 140.8 30.8205 140.8H29.7927ZM30.1927 140.465H30.8093C31.1344 140.465 31.3923 140.412 31.583 140.307C31.7769 140.199 31.9148 140.046 31.9966 139.848C32.0785 139.648 32.1188 139.41 32.1175 139.136C32.1161 138.856 32.0735 138.615 31.9896 138.414C31.9058 138.214 31.7664 138.059 31.5715 137.951C31.3797 137.842 31.1213 137.788 30.7963 137.788H30.1796L30.1927 140.465ZM35.9353 140.8L35.9205 137.783H34.9214L34.9198 137.453H37.3196L37.3212 137.783H36.3221L36.3368 140.8H35.9353ZM38.2087 140.8L38.1923 137.453H38.5939L38.6011 138.931H40.3364L40.3292 137.453H40.7307L40.7471 140.8H40.3455L40.338 139.26H38.6027L38.6103 140.8H38.2087ZM41.8357 140.8L41.8193 137.453H42.8997C43.161 137.453 43.3747 137.496 43.5409 137.583C43.707 137.669 43.8303 137.786 43.9107 137.936C43.9911 138.086 44.0318 138.252 44.0326 138.433C44.0337 138.644 43.9772 138.833 43.8633 139.002C43.7526 139.171 43.5779 139.291 43.3392 139.361L44.0777 140.8H43.6044L42.9188 139.418H42.8902H42.2305L42.2372 140.8H41.8357ZM42.2289 139.103H42.8791C43.1372 139.103 43.3249 139.041 43.4422 138.916C43.5595 138.792 43.6177 138.633 43.6168 138.438C43.6158 138.241 43.5561 138.084 43.4376 137.97C43.3223 137.852 43.1324 137.793 42.8679 137.793H42.2225L42.2289 139.103ZM46.2615 140.857C46.0321 140.857 45.8231 140.812 45.6346 140.723C45.4493 140.631 45.3004 140.489 45.188 140.298C45.0755 140.107 45.0185 139.863 45.0171 139.566L45.0068 137.453H45.4083L45.4187 139.571C45.4202 139.896 45.4995 140.132 45.6564 140.279C45.8132 140.425 46.0176 140.499 46.2693 140.499C46.5211 140.499 46.7231 140.425 46.8754 140.279C47.0276 140.132 47.1029 139.896 47.1014 139.571L47.091 137.453H47.4926L47.5029 139.566C47.5043 139.863 47.4498 140.107 47.3392 140.298C47.2285 140.489 47.0794 140.631 46.8919 140.723C46.7043 140.812 46.4942 140.857 46.2615 140.857Z" fill="white"/>
<path d="M214.471 17.1675L208.742 31.2705H204.96L202.052 20.0159C201.875 19.3226 201.723 19.0687 201.195 18.7766C200.333 18.3007 198.91 17.8546 197.659 17.5776L197.742 17.1678H203.831C204.607 17.1678 205.307 17.6945 205.488 18.6057L207.035 26.7662L210.712 17.1675H214.471ZM229.338 26.6658C229.335 22.9437 224.271 22.7386 224.297 21.0759C224.306 20.5699 224.776 20.0318 225.809 19.8945C226.322 19.8261 227.734 19.7739 229.34 20.5257L229.954 17.5351C229.091 17.2167 227.982 16.91 226.604 16.91C223.067 16.91 220.587 18.827 220.58 21.5718C220.567 23.6021 222.372 24.735 223.731 25.4097C225.129 26.1005 225.599 26.5445 225.597 27.1625C225.591 28.1085 224.491 28.5261 223.461 28.5425C221.662 28.5708 220.616 28.0464 219.782 27.652L219.149 30.7416C219.987 31.1327 221.532 31.4739 223.132 31.491C226.891 31.4908 229.341 29.5979 229.338 26.6658ZM238.7 31.2705H242.01L239.052 17.1675H235.997C235.311 17.1675 234.733 17.5753 234.48 18.2022L229.174 31.2705H232.931L233.667 29.1638L238.258 29.1638L238.7 31.2705ZM234.683 26.2734L236.541 20.9783L237.651 26.2734H234.683ZM219.584 17.1675L216.694 31.2705H213.115L216.007 17.1675H219.584Z" fill="white"/>
<path d="M70.0734 22.6904L70.0674 21.4771H69.6915L69.6902 21.2086H70.7444L70.7457 21.4771H70.3757L70.3816 22.6904H70.0734ZM70.9043 22.6904L70.897 21.2086H71.1954L71.7539 21.9445H71.6147L72.1501 21.2086H72.4485L72.4557 22.6904H72.1474L72.1418 21.5487L72.2653 21.5766L71.698 22.3125H71.6583L71.1037 21.5766L71.207 21.5487L71.2126 22.6904H70.9043Z" fill="white"/>
<g clip-path="url(#clip0_227_319)">
<path fill-rule="evenodd" clip-rule="evenodd" d="M30.0105 20.8886C30.1586 20.8643 30.3102 20.9119 30.4186 21.0168C31.6792 22.2367 32.3782 23.8695 32.3867 25.6143C32.404 29.1525 29.5397 32.031 26.0016 32.031C23.0749 32.031 20.5122 30.0496 19.7694 27.2126C19.6286 26.6743 19.556 26.1366 19.5534 25.6143C19.5484 24.5889 19.7831 23.6032 20.2511 22.6846C20.7116 21.7816 21.3914 20.9908 22.217 20.3976C22.2218 20.3942 22.2267 20.3908 22.2316 20.3875C22.2621 20.3674 22.2946 20.3435 22.329 20.3183L22.3325 20.3157C22.336 20.3131 22.3394 20.3106 22.3429 20.308C22.3567 20.2979 22.3705 20.2878 22.3844 20.2777C23.6972 19.335 24.5174 17.8736 24.6361 16.2673C24.6478 16.1088 24.7381 15.9671 24.8768 15.8897C25.0154 15.8125 25.1837 15.8099 25.3254 15.8829C26.9523 16.7217 28.151 18.2165 28.6139 19.9841C28.7548 20.5223 28.8274 21.06 28.83 21.5825C28.8313 21.8548 28.8149 22.1264 28.7809 22.3964C29.133 22.0226 29.4317 21.5999 29.6663 21.1398C29.7345 21.0061 29.8622 20.9129 30.0105 20.8886ZM25.6785 27.6631C26.7182 27.6631 27.557 26.8202 27.5519 25.7805C27.5468 24.7409 26.6998 23.898 25.6601 23.898C24.6204 23.898 23.7817 24.7409 23.7868 25.7805C23.7919 26.8202 24.6388 27.6631 25.6785 27.6631Z" fill="white"/>
</g>
<path d="M40.0244 29.4816C40.5208 29.4816 40.9596 29.3909 41.3406 29.2095C41.7215 29.0185 42.0113 28.7321 42.21 28.3502L42.2146 29.3097H44.2196L44.1814 21.4905H42.0332L42.0555 26.0589C42.0577 26.5076 41.9258 26.8704 41.6599 27.1473C41.3939 27.4146 41.0508 27.5482 40.6307 27.5482C40.2106 27.5482 39.8663 27.4146 39.5977 27.1473C39.329 26.8704 39.1935 26.5076 39.1913 26.0589L39.169 21.4905H37.0209L37.044 26.2307C37.0488 27.2045 37.3056 27.9922 37.8146 28.5937C38.333 29.1856 39.0696 29.4816 40.0244 29.4816Z" fill="white"/>
<path d="M45.748 20.7888H47.8961L47.8856 18.6407L45.7375 18.6407L45.748 20.7888ZM45.7896 29.3097H47.9378L47.8996 21.4905H45.7514L45.7896 29.3097Z" fill="white"/>
<path d="M50.4549 29.3097H52.6031L52.574 23.3522H54.2495L54.2404 21.4905H52.5649L52.5643 21.376C52.5609 20.679 52.965 20.3305 53.7765 20.3305C53.9101 20.3305 54.0677 20.3449 54.2493 20.3735L54.2403 18.5404C54.0205 18.4927 53.7674 18.4688 53.481 18.4688C52.5071 18.4688 51.7494 18.7218 51.2076 19.2278C50.6754 19.7338 50.4116 20.4499 50.4161 21.376L50.4167 21.4905H49.0992L49.1083 23.3522L50.4258 23.3522L50.4549 29.3097Z" fill="white"/>
<path d="M55.3836 29.3097H57.5317L57.5112 25.0994C57.5083 24.517 57.6684 24.0683 57.9915 23.7532C58.3145 23.4286 58.7386 23.2663 59.2637 23.2663H59.9368L59.9277 21.4046H59.4694C58.992 21.4046 58.5676 21.4953 58.1962 21.6767C57.8342 21.8486 57.5542 22.1779 57.356 22.6648L57.3503 21.4905H55.3454L55.3836 29.3097Z" fill="white"/>
<path d="M62.1406 32.4889C63.5727 32.4889 64.6046 31.6726 65.2363 30.0401L68.5456 21.4905L66.24 21.4905L64.4171 26.5171L62.5451 21.4905H60.2395L63.3567 29.3097L63.2151 29.6391C63.1018 29.8969 62.9549 30.126 62.7745 30.3265C62.5941 30.527 62.2938 30.6272 61.8737 30.6272C61.53 30.6272 61.2052 30.5795 60.8992 30.484L60.9078 32.2455C61.0705 32.3314 61.257 32.3935 61.4672 32.4316C61.687 32.4698 61.9115 32.4889 62.1406 32.4889Z" fill="white"/>
<defs>
<filter id="filter0_b_227_319" x="-27.8857" y="-27.177" width="316.851" height="215.083" filterUnits="userSpaceOnUse" color-interpolation-filters="sRGB">
<feFlood flood-opacity="0" result="BackgroundImageFix"/>
<feGaussianBlur in="BackgroundImageFix" stdDeviation="13.9429"/>
<feComposite in2="SourceAlpha" operator="in" result="effect1_backgroundBlur_227_319"/>
<feBlend mode="normal" in="SourceGraphic" in2="effect1_backgroundBlur_227_319" result="shape"/>
</filter>
<clipPath id="clip0_227_319">
<rect width="16.2013" height="16.2013" fill="white" transform="matrix(1 0 0.00488691 0.999988 17.8215 15.83)"/>
</clipPath>
</defs>
</svg>
